<?xml version="1.0" encoding="utf-8"?>
<?xml-stylesheet type="text/xsl" href="rss1.xsl"?>
<rss version="2.0" xmlns:atom="http://www.w3.org/2005/Atom" xmlns:content="http://purl.org/rss/1.0/modules/content/" xmlns:dc="http://purl.org/dc/elements/1.1/" xmlns:media="http://search.yahoo.com/mrss/">
<channel>
 <title>Getty</title>
 <link>http://www.gettyimg.com/</link>
 <atom:link href="http://www.gettyimg.com/" rel="self" type="application/rss+xml" />

 
                <item>
                <title><![CDATA[【HD Live Performances】HDTV - Mariah Carey - All I Want For Christmas Is You - Christmas in Rockefeller Center 2014 1080i DD5.1 MPEG2-TrollHD]]></title>
                <link><![CDATA[https://sharemania.us/threads/mariah-carey-all-i-want-for-christmas-is-you-christmas-in-rockefeller-center-2014-1080i-dd5-1-mpeg2-trollhd.231800/]]></link>
                <description><![CDATA[<article>
<blockquote class="messageText SelectQuoteContainer ugc baseHtml">
<img src="https://www.groundedreason.com/wp-content/uploads/2021/11/rockefeller-center.jpg" class="bbCodeImage LbImage" alt="[​IMG]" data-url="https://www.groundedreason.com/wp-content/uploads/2021/11/rockefeller-center.jpg" style=""> <br>
<img src="https://i.postimg.cc/Znj6svqk/Mariah-Carey-All-I-Want-For-Christmas-Is-You-Christmas-in-Rockefeller-Center-2014-1080i-DD5-1-MP.jpg" class="bbCodeImage LbImage" alt="[​IMG]" data-url="https://i.postimg.cc/Znj6svqk/Mariah-Carey-All-I-Want-For-Christmas-Is-You-Christmas-in-Rockefeller-Center-2014-1080i-DD5-1-MP.jpg" style=""> <br>
<div class="ToggleTriggerAnchor bbCodeSpoilerContainer">
<button type="button" class="button bbCodeSpoilerButton ToggleTrigger Tooltip JsOnly" data-target="> .SpoilerTarget"><span>Spoiler: <span class="SpoilerTitle">Media Info</span></span></button>
<div class="SpoilerTarget bbCodeSpoilerText">General<br>
ID : 1 (0x1)<br>
Complete name : Mariah Carey - All I Want For Christmas Is You - Christmas in Rockefeller Center 2014 1080i DD5.1 MPEG2-TrollHD.ts<br>
Format : MPEG-TS<br>
File size : 540 MiB<br>
Duration : 4 min 18 s<br>
Overall bit rate mode : Variable<br>
Overall bit rate : 17.5 Mb/s<br>
Frame rate : 29.970 FPS<br>
Movie name : Christmas in Rockefeller Center<br>
Law rating : TV-G<br>
<br>
Video<br>
ID : 7541 (0x1D75)<br>
Menu ID : 1027 (0x403)<br>
Format : MPEG Video<br>
Format version : Version 2<br>
Format profile : Main@High<br>
Format settings : CustomMatrix / BVOP<br>
Format settings, BVOP : Yes<br>
Format settings, Matrix : Custom<br>
Format settings, GOP : Variable<br>
Format settings, picture structure : Frame<br>
Codec ID : 2<br>
Duration : 4 min 18 s<br>
Bit rate mode : Variable<br>
Bit rate : 16.1 Mb/s<br>
Maximum bit rate : 24.0 Mb/s<br>
Width : 1 920 pixels<br>
Height : 1 080 pixels<br>
Display aspect ratio : 16:9<br>
Active Format Description : Pillarbox 4:3 image<br>
Frame rate : 29.970 (30000/1001) FPS<br>
Color space : YUV<br>
Chroma subsampling : 4:2:0<br>
Bit depth : 8 bits<br>
Scan type : Interlaced<br>
Scan order : Top Field First<br>
Compression mode : Lossy<br>
Bits/(Pixel*Frame) : 0.259<br>
Time code of first frame : 00:00:00;00<br>
Time code source : Group of pictures header<br>
GOP, Open/Closed : Open<br>
GOP, Open/Closed of first frame : Closed<br>
Stream size : 495 MiB (92%)<br>
<br>
Audio #1<br>
ID : 7542 (0x1D76)<br>
Menu ID : 1027 (0x403)<br>
Format : AC-3<br>
Format/Info : Audio Coding 3<br>
Commercial name : Dolby Digital<br>
Codec ID : 129<br>
Duration : 4 min 18 s<br>
Bit rate mode : Constant<br>
Bit rate : 384 kb/s<br>
Channel(s) : 6 channels<br>
Channel layout : L R C LFE Ls Rs<br>
Sampling rate : 48.0 kHz<br>
Frame rate : 31.250 FPS (1536 SPF)<br>
Compression mode : Lossy<br>
Delay relative to video : 5 ms<br>
Stream size : 11.8 MiB (2%)<br>
Language : English<br>
Service kind : Complete Main<br>
<br>
Audio #2<br>
ID : 7543 (0x1D77)<br>
Menu ID : 1027 (0x403)<br>
Format : AC-3<br>
Format/Info : Audio Coding 3<br>
Commercial name : Dolby Digital<br>
Codec ID : 129<br>
Duration : 4 min 18 s<br>
Bit rate mode : Constant<br>
Bit rate : 192 kb/s<br>
Channel(s) : 2 channels<br>
Channel layout : L R<br>
Sampling rate : 48.0 kHz<br>
Frame rate : 31.250 FPS (1536 SPF)<br>
Compression mode : Lossy<br>
Delay relative to video : 26 ms<br>
Stream size : 5.91 MiB (1%)<br>
Language : Spanish<br>
Service kind : Complete Main<br>
<br>
Text #1<br>
ID : 7541 (0x1D75)-CC1<br>
Menu ID : 1027 (0x403)<br>
Format : EIA-608<br>
Muxing mode : A/53 / DTVCC Transport<br>
Muxing mode, more info : Muxed in Video #1<br>
Duration : 4 min 18 s<br>
Duration of the visible content : 4 min 9 s<br>
Start time (commands) : 6 s 752 ms<br>
Start time : 6 s 819 ms<br>
End time : 4 min 16 s<br>
Bit rate mode : Constant<br>
Stream size : 0.00 Byte (0%)<br>
Type of the first event : RollUp<br>
<br>
Text #2<br>
ID : 7541 (0x1D75)-1<br>
Menu ID : 1027 (0x403)<br>
Format : EIA-708<br>
Muxing mode : A/53 / DTVCC Transport<br>
Muxing mode, more info : Muxed in Video #1<br>
Duration : 4 min 18 s<br>
Bit rate mode : Constant<br>
Stream size : 0.00 Byte (0%)</div>
</div>Capped by <a href="https://sharemania.us/members/1219/" class="username" data-user="1219, @TrollHD">@TrollHD</a><br>
<div class="bbCodeBlock bbCodeVfcHH HiddenContent">
<div class="attribution type">Hidden Content:</div>
<blockquote>You must either reply or click 'Like' to see the hidden information contained here.</blockquote>
</div>
<div class="messageTextEndMarker">&nbsp;</div>
</blockquote>
</article>]]></description>
                <author><![CDATA[szymek04sawicki]]></author>
                </item>

                
                <item>
                <title><![CDATA[【Requests】[REQ VID] - Drake &amp; Josh Season 2 - 4 Widescreen 4:3 using AI turn to 16:19 widescreen]]></title>
                <link><![CDATA[https://sharemania.us/threads/drake-josh-season-2-4-widescreen-4-3-using-ai-turn-to-16-19-widescreen.231799/]]></link>
                <description><![CDATA[<article>
<blockquote class="messageText SelectQuoteContainer ugc baseHtml">
Drake &amp; Josh Season 2 - 4 Widescreen<br>
4:3 using AI turn to 16:19 widescreen<br>
<br>
Link <span data-s9e-mediaembed="youtube" style="display:inline-block;width:100%;max-width:640px"><span style="display:block;overflow:hidden;position:relative;padding-bottom:56.25%"><iframe allowfullscreen="" loading="lazy" scrolling="no" style="background:url(https://i.ytimg.com/vi/la7OPmsjQ7w/hqdefault.jpg) 50% 50% / cover;border:0;height:100%;left:0;position:absolute;width:100%" src="https://www.youtube.com/embed/la7OPmsjQ7w"></iframe></span></span><br>
<br>
Link <span data-s9e-mediaembed="youtube" style="display:inline-block;width:100%;max-width:640px"><span style="display:block;overflow:hidden;position:relative;padding-bottom:56.25%"><iframe allowfullscreen="" loading="lazy" scrolling="no" style="background:url(https://i.ytimg.com/vi/D5BeEI_DDSE/hqdefault.jpg) 50% 50% / cover;border:0;height:100%;left:0;position:absolute;width:100%" src="https://www.youtube.com/embed/D5BeEI_DDSE"></iframe></span></span><br>
<br>
Link <span data-s9e-mediaembed="youtube" style="display:inline-block;width:100%;max-width:640px"><span style="display:block;overflow:hidden;position:relative;padding-bottom:56.25%"><iframe allowfullscreen="" loading="lazy" scrolling="no" style="background:url(https://i.ytimg.com/vi/YvtStf0o9n8/hqdefault.jpg) 50% 50% / cover;border:0;height:100%;left:0;position:absolute;width:100%" src="https://www.youtube.com/embed/YvtStf0o9n8"></iframe></span></span><br>
<br>
Link <span data-s9e-mediaembed="youtube" style="display:inline-block;width:100%;max-width:640px"><span style="display:block;overflow:hidden;position:relative;padding-bottom:56.25%"><iframe allowfullscreen="" loading="lazy" scrolling="no" style="background:url(https://i.ytimg.com/vi/la7OPmsjQ7w/hqdefault.jpg) 50% 50% / cover;border:0;height:100%;left:0;position:absolute;width:100%" src="https://www.youtube.com/embed/la7OPmsjQ7w"></iframe></span></span>
<div class="messageTextEndMarker">&nbsp;</div>
</blockquote>
</article>]]></description>
                <author><![CDATA[Go 101]]></author>
                </item>

                </channel></rss>